<svg width="168" height="29" viewBox="0 0 168 29" fill="none" xmlns="http://www.w3.org/2000/svg">
<path d="M0.38 4.2V28H7.86V4.2H0.38ZM5.208 10.15H9.73C10.6593 10.15 11.362 10.3427 11.838 10.728C12.314 11.1133 12.552 11.6573 12.552 12.36C12.552 13.0627 12.314 13.6067 11.838 13.992C11.362 14.3773 10.6593 14.57 9.73 14.57H5.208V20.52H9.73C12.0647 20.52 13.9573 20.1913 15.408 19.534C16.8813 18.8767 17.958 17.936 18.638 16.712C19.3407 15.488 19.692 14.0373 19.692 12.36C19.692 10.66 19.3407 9.20933 18.638 8.008C17.958 6.784 16.8813 5.84333 15.408 5.186C13.9573 4.52867 12.0647 4.2 9.73 4.2H5.208V10.15ZM28.2069 12.36H21.7469V28H28.2069V12.36ZM32.5929 19.092L35.2789 13.38C35.0749 12.9947 34.7009 12.666 34.1569 12.394C33.6355 12.0993 33.0915 11.952 32.5249 11.952C31.5729 11.952 30.6662 12.2467 29.8049 12.836C28.9662 13.4027 28.2862 14.1733 27.7649 15.148C27.2435 16.1227 26.9829 17.2333 26.9829 18.48L28.2069 21.37C28.2069 20.622 28.3202 20.01 28.5469 19.534C28.7962 19.058 29.1135 18.7067 29.4989 18.48C29.8842 18.2533 30.2695 18.14 30.6549 18.14C31.1082 18.14 31.4935 18.2307 31.8109 18.412C32.1282 18.5933 32.3889 18.82 32.5929 19.092ZM35.9751 20.18C35.9751 21.8573 36.3831 23.308 37.1991 24.532C38.0151 25.756 39.1371 26.6967 40.5651 27.354C41.9931 28.0113 43.6137 28.34 45.4271 28.34C47.2404 28.34 48.8611 28.0113 50.2891 27.354C51.7171 26.6967 52.8391 25.756 53.6551 24.532C54.4711 23.308 54.8791 21.8573 54.8791 20.18C54.8791 18.48 54.4711 17.018 53.6551 15.794C52.8391 14.57 51.7171 13.6293 50.2891 12.972C48.8611 12.3147 47.2404 11.986 45.4271 11.986C43.6137 11.986 41.9931 12.3147 40.5651 12.972C39.1371 13.6293 38.0151 14.57 37.1991 15.794C36.3831 17.018 35.9751 18.48 35.9751 20.18ZM42.8091 20.18C42.8091 19.5453 42.9337 19.0127 43.1831 18.582C43.4324 18.1513 43.7497 17.8227 44.1351 17.596C44.5431 17.3693 44.9737 17.256 45.4271 17.256C45.8804 17.256 46.2997 17.3693 46.6851 17.596C47.0931 17.8227 47.4217 18.1513 47.6711 18.582C47.9204 19.0127 48.0451 19.5453 48.0451 20.18C48.0451 20.8147 47.9204 21.3473 47.6711 21.778C47.4217 22.2087 47.0931 22.5373 46.6851 22.764C46.2997 22.968 45.8804 23.07 45.4271 23.07C44.9737 23.07 44.5431 22.968 44.1351 22.764C43.7497 22.5373 43.4324 22.2087 43.1831 21.778C42.9337 21.3473 42.8091 20.8147 42.8091 20.18Z" fill="#C8986C"/>
<path d="M65.1543 16.1C65.1543 14.876 65.4263 13.856 65.9703 13.04C66.5369 12.2013 67.2736 11.578 68.1803 11.17C69.1096 10.762 70.1296 10.558 71.2403 10.558C72.3736 10.558 73.3483 10.7053 74.1643 11C74.9803 11.272 75.6943 11.6347 76.3063 12.088C76.9409 12.5413 77.5076 13.006 78.0063 13.482V5.798C77.0769 5.14067 76.0569 4.59667 74.9463 4.166C73.8583 3.73533 72.4416 3.52 70.6963 3.52C68.6336 3.52 66.7523 3.81467 65.0523 4.404C63.3523 4.99333 61.9016 5.84333 60.7003 6.954C59.4989 8.06467 58.5696 9.39067 57.9123 10.932C57.2549 12.4733 56.9263 14.196 56.9263 16.1C56.9263 18.004 57.2549 19.7267 57.9123 21.268C58.5696 22.8093 59.4989 24.1353 60.7003 25.246C61.9016 26.3567 63.3523 27.2067 65.0523 27.796C66.7523 28.3853 68.6336 28.68 70.6963 28.68C72.4416 28.68 73.8583 28.4533 74.9463 28C76.0569 27.5693 77.0769 27.0367 78.0063 26.402V18.718C77.5076 19.194 76.9409 19.6587 76.3063 20.112C75.6943 20.5427 74.9803 20.9053 74.1643 21.2C73.3483 21.4947 72.3736 21.642 71.2403 21.642C70.1296 21.642 69.1096 21.438 68.1803 21.03C67.2736 20.622 66.5369 20.01 65.9703 19.194C65.4263 18.3553 65.1543 17.324 65.1543 16.1ZM81.0649 20.18C81.0649 21.8573 81.4729 23.308 82.2889 24.532C83.1049 25.756 84.2269 26.6967 85.6549 27.354C87.0829 28.0113 88.7036 28.34 90.5169 28.34C92.3303 28.34 93.9509 28.0113 95.3789 27.354C96.8069 26.6967 97.9289 25.756 98.7449 24.532C99.5609 23.308 99.9689 21.8573 99.9689 20.18C99.9689 18.48 99.5609 17.018 98.7449 15.794C97.9289 14.57 96.8069 13.6293 95.3789 12.972C93.9509 12.3147 92.3303 11.986 90.5169 11.986C88.7036 11.986 87.0829 12.3147 85.6549 12.972C84.2269 13.6293 83.1049 14.57 82.2889 15.794C81.4729 17.018 81.0649 18.48 81.0649 20.18ZM87.8989 20.18C87.8989 19.5453 88.0236 19.0127 88.2729 18.582C88.5223 18.1513 88.8396 17.8227 89.2249 17.596C89.6329 17.3693 90.0636 17.256 90.5169 17.256C90.9703 17.256 91.3896 17.3693 91.7749 17.596C92.1829 17.8227 92.5116 18.1513 92.7609 18.582C93.0103 19.0127 93.1349 19.5453 93.1349 20.18C93.1349 20.8147 93.0103 21.3473 92.7609 21.778C92.5116 22.2087 92.1829 22.5373 91.7749 22.764C91.3896 22.968 90.9703 23.07 90.5169 23.07C90.0636 23.07 89.6329 22.968 89.2249 22.764C88.8396 22.5373 88.5223 22.2087 88.2729 21.778C88.0236 21.3473 87.8989 20.8147 87.8989 20.18ZM101.166 12.36V17.63H113.576V12.36H101.166ZM112.828 7.43L115.242 2.738C114.97 2.51133 114.607 2.25067 114.154 1.956C113.723 1.63867 113.179 1.36667 112.522 1.14C111.865 0.913333 111.06 0.8 110.108 0.8C108.589 0.8 107.331 1.04933 106.334 1.548C105.337 2.04667 104.589 2.72667 104.09 3.588C103.614 4.44933 103.376 5.44667 103.376 6.58V28H109.666V8.45C109.666 8.042 109.734 7.702 109.87 7.43C110.006 7.13533 110.187 6.92 110.414 6.784C110.663 6.648 110.958 6.58 111.298 6.58C111.615 6.58 111.887 6.65933 112.114 6.818C112.363 6.97667 112.601 7.18067 112.828 7.43ZM114.049 12.36V17.63H126.459V12.36H114.049ZM125.711 7.43L128.125 2.738C127.853 2.51133 127.49 2.25067 127.037 1.956C126.606 1.63867 126.062 1.36667 125.405 1.14C124.748 0.913333 123.943 0.8 122.991 0.8C121.472 0.8 120.214 1.04933 119.217 1.548C118.22 2.04667 117.472 2.72667 116.973 3.588C116.497 4.44933 116.259 5.44667 116.259 6.58V28H122.549V8.45C122.549 8.042 122.617 7.702 122.753 7.43C122.889 7.13533 123.07 6.92 123.297 6.784C123.546 6.648 123.841 6.58 124.181 6.58C124.498 6.58 124.77 6.65933 124.997 6.818C125.246 6.97667 125.484 7.18067 125.711 7.43ZM137.574 28.34C139.75 28.34 141.574 27.932 143.048 27.116C144.544 26.2773 145.711 25.0193 146.55 23.342L140.498 22.39C140.226 22.8887 139.818 23.274 139.274 23.546C138.73 23.7953 138.05 23.92 137.234 23.92C136.622 23.92 136.1 23.7727 135.67 23.478C135.262 23.1833 134.944 22.764 134.718 22.22C134.514 21.6533 134.423 20.9733 134.446 20.18C134.446 19.228 134.536 18.4573 134.718 17.868C134.899 17.256 135.182 16.814 135.568 16.542C135.953 16.2473 136.452 16.1 137.064 16.1C137.517 16.1 137.902 16.202 138.22 16.406C138.56 16.61 138.82 16.9047 139.002 17.29C139.183 17.6753 139.274 18.14 139.274 18.684C139.274 18.8427 139.228 19.0353 139.138 19.262C139.047 19.4887 138.934 19.704 138.798 19.908L140.09 18.344H131.386V21.54H146.244C146.289 21.2907 146.312 21.03 146.312 20.758C146.312 20.4633 146.312 20.1687 146.312 19.874C146.312 18.174 145.96 16.746 145.258 15.59C144.578 14.4113 143.558 13.5273 142.198 12.938C140.86 12.326 139.206 12.02 137.234 12.02C135.239 12.02 133.539 12.3487 132.134 13.006C130.728 13.6407 129.652 14.57 128.904 15.794C128.156 16.9953 127.782 18.4573 127.782 20.18C127.782 21.88 128.167 23.342 128.938 24.566C129.731 25.7673 130.853 26.6967 132.304 27.354C133.777 28.0113 135.534 28.34 137.574 28.34ZM158.292 28.34C160.468 28.34 162.293 27.932 163.766 27.116C165.262 26.2773 166.43 25.0193 167.268 23.342L161.216 22.39C160.944 22.8887 160.536 23.274 159.992 23.546C159.448 23.7953 158.768 23.92 157.952 23.92C157.34 23.92 156.819 23.7727 156.388 23.478C155.98 23.1833 155.663 22.764 155.436 22.22C155.232 21.6533 155.142 20.9733 155.164 20.18C155.164 19.228 155.255 18.4573 155.436 17.868C155.618 17.256 155.901 16.814 156.286 16.542C156.672 16.2473 157.17 16.1 157.782 16.1C158.236 16.1 158.621 16.202 158.938 16.406C159.278 16.61 159.539 16.9047 159.72 17.29C159.902 17.6753 159.992 18.14 159.992 18.684C159.992 18.8427 159.947 19.0353 159.856 19.262C159.766 19.4887 159.652 19.704 159.516 19.908L160.808 18.344H152.104V21.54H166.962C167.008 21.2907 167.03 21.03 167.03 20.758C167.03 20.4633 167.03 20.1687 167.03 19.874C167.03 18.174 166.679 16.746 165.976 15.59C165.296 14.4113 164.276 13.5273 162.916 12.938C161.579 12.326 159.924 12.02 157.952 12.02C155.958 12.02 154.258 12.3487 152.852 13.006C151.447 13.6407 150.37 14.57 149.622 15.794C148.874 16.9953 148.5 18.4573 148.5 20.18C148.5 21.88 148.886 23.342 149.656 24.566C150.45 25.7673 151.572 26.6967 153.022 27.354C154.496 28.0113 156.252 28.34 158.292 28.34Z" fill="#352B2B"/>
</svg>
